<svg width="460" height="832" viewBox="0 0 460 832" fill="none" xmlns="http://www.w3.org/2000/svg">
<g clip-path="url(#clip0_2_13)">
<path d="M0 0H460V837H0V0Z" fill="#383838"/>
<path d="M377.497 750.666C375.103 747.63 370.702 747.109 367.666 749.503C364.63 751.897 364.109 756.298 366.503 759.334L377.497 750.666ZM366.503 759.334L398.698 800.169L409.692 791.501L377.497 750.666L366.503 759.334Z" fill="#FF8A00"/>
<line x1="399.809" y1="785.417" x2="252.574" y2="1045.65" stroke="#FF8A00" stroke-width="22"/>
<line x1="123.254" y1="47.1095" x2="69.1398" y2="137.109" stroke="#FF8A00" stroke-width="47"/>
<line x1="123.254" y1="47.1095" x2="69.1398" y2="137.109" stroke="#FF8A00" stroke-width="47"/>
<line x1="35.1413" y1="-72.4764" x2="141.006" y2="61.8128" stroke="#FF8A00" stroke-width="8"/>
<path d="M116.38 213.459C117.725 215.212 120.236 215.542 121.989 214.197C123.741 212.852 124.072 210.341 122.727 208.588L116.38 213.459ZM48.8268 125.435L116.38 213.459L122.727 208.588L55.1732 120.565L48.8268 125.435Z" fill="#FF8A00"/>
<rect x="70.8666" y="128.531" width="26.5956" height="18.2642" transform="rotate(31.5 70.8666 128.531)" fill="#FF8A00"/>
<rect x="108.028" y="27.1482" width="25.3859" height="9.45456" transform="rotate(31.5 108.028 27.1482)" fill="#FF8A00"/>
<path d="M-12 536L44.7488 425" stroke="#494949" stroke-width="28"/>
<path d="M-6 601L50.7488 490" stroke="#494949" stroke-width="28"/>
<path d="M-23 481L33.7488 370" stroke="#494949" stroke-width="28"/>
<line x1="304" y1="70.5" x2="388" y2="70.5" stroke="white"/>
<line x1="304" y1="55.5" x2="408" y2="55.5" stroke="white"/>
<line x1="304" y1="58.5" x2="408" y2="58.5" stroke="white"/>
<line x1="323" y1="64.5" x2="388" y2="64.5" stroke="white"/>
<line x1="323" y1="67.5" x2="388" y2="67.5" stroke="white"/>
<line x1="323" y1="61.5" x2="388" y2="61.5" stroke="white"/>
<line x1="334" y1="52.5" x2="373" y2="52.5" stroke="white"/>
<line x1="334" y1="49.5" x2="373" y2="49.5" stroke="white"/>
<line x1="359" y1="46.5" x2="373" y2="46.5" stroke="white"/>
<line x1="359" y1="43.5" x2="373" y2="43.5" stroke="white"/>
<line x1="334" y1="76.5" x2="443" y2="76.5" stroke="white"/>
<line x1="334" y1="73.5" x2="443" y2="73.5" stroke="white"/>
<line x1="176" y1="766.5" x2="92" y2="766.5" stroke="white"/>
<line x1="176" y1="781.5" x2="72" y2="781.5" stroke="white"/>
<line x1="176" y1="778.5" x2="72" y2="778.5" stroke="white"/>
<line x1="157" y1="772.5" x2="92" y2="772.5" stroke="white"/>
<line x1="157" y1="769.5" x2="92" y2="769.5" stroke="white"/>
<line x1="157" y1="775.5" x2="92" y2="775.5" stroke="white"/>
<line x1="146" y1="784.5" x2="107" y2="784.5" stroke="white"/>
<line x1="146" y1="787.5" x2="107" y2="787.5" stroke="white"/>
<line x1="121" y1="790.5" x2="107" y2="790.5" stroke="white"/>
<line x1="121" y1="793.5" x2="107" y2="793.5" stroke="white"/>
<line x1="146" y1="760.5" x2="37" y2="760.5" stroke="white"/>
<line x1="146" y1="763.5" x2="37" y2="763.5" stroke="white"/>
<rect x="324.5" y="262.5" width="19" height="31" stroke="#FF8A00" stroke-width="3"/>
<rect x="332.5" y="253.5" width="24" height="7" stroke="#FF8A00" stroke-width="3"/>
<rect x="0.751196" y="0.110883" width="10.5436" height="20.1834" transform="matrix(0.846215 -0.532842 0.656178 0.754607 52.0428 651.578)" stroke="#FF8A00"/>
<rect x="1.50476" y="0.208859" width="14.9653" height="9.28098" transform="matrix(0.841796 -0.539796 0.66296 0.748655 195.1 386.023)" stroke="#FF8A00" stroke-width="2"/>
<path d="M406.938 120.502V115.92C406.938 115.705 407.074 115.598 407.348 115.598H408.238C408.512 115.598 408.648 115.705 408.648 115.92V120.443C408.648 121.498 408.803 122.158 409.111 122.424C409.424 122.686 409.775 122.816 410.166 122.816C410.557 122.816 410.906 122.686 411.215 122.424C411.527 122.158 411.684 121.498 411.684 120.443V115.92C411.684 115.705 411.82 115.598 412.094 115.598H412.984C413.258 115.598 413.395 115.705 413.395 115.92V120.502C413.395 121.869 413.105 122.828 412.527 123.379C411.949 123.926 411.162 124.199 410.166 124.199C409.17 124.199 408.383 123.926 407.805 123.379C407.227 122.828 406.938 121.869 406.938 120.502ZM414.836 119.799C414.836 118.451 415.188 117.381 415.891 116.588C416.594 115.795 417.59 115.398 418.879 115.398C419.656 115.398 420.266 115.498 420.707 115.697C421.152 115.896 421.543 116.205 421.879 116.623C422.082 116.877 422.076 117.074 421.861 117.215L421.193 117.648C420.998 117.777 420.789 117.721 420.566 117.479C420.383 117.279 420.15 117.113 419.869 116.98C419.588 116.848 419.277 116.781 418.938 116.781C418.117 116.781 417.533 117.041 417.186 117.561C416.838 118.076 416.664 118.822 416.664 119.799C416.664 120.775 416.838 121.523 417.186 122.043C417.533 122.559 418.117 122.816 418.938 122.816C419.336 122.816 419.68 122.777 419.969 122.699C420.258 122.617 420.531 122.471 420.789 122.26V121.211H419.518C419.225 121.211 419.078 121.084 419.078 120.83V120.139C419.078 119.885 419.225 119.758 419.518 119.758H422.061C422.354 119.758 422.5 119.885 422.5 120.139V123.115C421.953 123.518 421.4 123.799 420.842 123.959C420.287 124.119 419.633 124.199 418.879 124.199C417.609 124.199 416.617 123.803 415.902 123.01C415.191 122.217 414.836 121.146 414.836 119.799ZM423.889 123.408C423.76 123.236 423.742 123.088 423.836 122.963L424.246 122.4C424.41 122.174 424.609 122.168 424.844 122.383C424.984 122.512 425.201 122.629 425.494 122.734C425.787 122.836 426.08 122.887 426.373 122.887C426.818 122.887 427.193 122.762 427.498 122.512C427.807 122.262 427.961 121.896 427.961 121.416C427.961 120.959 427.863 120.59 427.668 120.309C427.473 120.027 427.236 119.887 426.959 119.887C426.721 119.887 426.502 119.906 426.303 119.945C426.104 119.98 425.896 120.092 425.682 120.279C425.533 120.408 425.354 120.473 425.143 120.473H424.504C424.25 120.473 424.123 120.346 424.123 120.092V116.049C424.123 115.795 424.25 115.668 424.504 115.668H428.723C428.977 115.668 429.104 115.795 429.104 116.049V116.74C429.104 116.994 428.977 117.121 428.723 117.121H425.764V118.557C425.764 118.713 425.756 118.869 425.74 119.025H425.775C425.982 118.846 426.213 118.727 426.467 118.668C426.721 118.605 426.992 118.574 427.281 118.574C427.965 118.574 428.541 118.809 429.01 119.277C429.482 119.742 429.719 120.463 429.719 121.439C429.719 122.338 429.418 123.023 428.816 123.496C428.219 123.965 427.508 124.199 426.684 124.199C425.996 124.199 425.4 124.125 424.896 123.977C424.396 123.824 424.061 123.635 423.889 123.408ZM430.92 123.408C430.791 123.236 430.773 123.088 430.867 122.963L431.277 122.4C431.441 122.174 431.641 122.168 431.875 122.383C432.016 122.512 432.232 122.629 432.525 122.734C432.818 122.836 433.111 122.887 433.404 122.887C433.85 122.887 434.225 122.762 434.529 122.512C434.838 122.262 434.992 121.896 434.992 121.416C434.992 120.959 434.895 120.59 434.699 120.309C434.504 120.027 434.268 119.887 433.99 119.887C433.752 119.887 433.533 119.906 433.334 119.945C433.135 119.98 432.928 120.092 432.713 120.279C432.564 120.408 432.385 120.473 432.174 120.473H431.535C431.281 120.473 431.154 120.346 431.154 120.092V116.049C431.154 115.795 431.281 115.668 431.535 115.668H435.754C436.008 115.668 436.135 115.795 436.135 116.049V116.74C436.135 116.994 436.008 117.121 435.754 117.121H432.795V118.557C432.795 118.713 432.787 118.869 432.771 119.025H432.807C433.014 118.846 433.244 118.727 433.498 118.668C433.752 118.605 434.023 118.574 434.312 118.574C434.996 118.574 435.572 118.809 436.041 119.277C436.514 119.742 436.75 120.463 436.75 121.439C436.75 122.338 436.449 123.023 435.848 123.496C435.25 123.965 434.539 124.199 433.715 124.199C433.027 124.199 432.432 124.125 431.928 123.977C431.428 123.824 431.092 123.635 430.92 123.408ZM438.279 117.332C438.178 117.141 438.246 116.992 438.484 116.887C438.711 116.785 438.947 116.643 439.193 116.459C439.439 116.275 439.641 116.086 439.797 115.891C439.973 115.672 440.141 115.562 440.301 115.562H441.232C441.467 115.562 441.584 115.68 441.584 115.914V123.648C441.584 123.883 441.467 124 441.232 124H440.295C440.061 124 439.943 123.883 439.943 123.648V118.076C439.943 117.92 439.951 117.764 439.967 117.607H439.943C439.822 117.76 439.689 117.891 439.545 118C439.4 118.109 439.254 118.195 439.105 118.258C438.922 118.336 438.783 118.285 438.689 118.105L438.279 117.332Z" fill="#818181"/>
<path d="M10.9375 286.502V281.92C10.9375 281.705 11.0742 281.598 11.3477 281.598H12.2383C12.5117 281.598 12.6484 281.705 12.6484 281.92V286.443C12.6484 287.498 12.8027 288.158 13.1113 288.424C13.4238 288.686 13.7754 288.816 14.166 288.816C14.5566 288.816 14.9062 288.686 15.2148 288.424C15.5273 288.158 15.6836 287.498 15.6836 286.443V281.92C15.6836 281.705 15.8203 281.598 16.0938 281.598H16.9844C17.2578 281.598 17.3945 281.705 17.3945 281.92V286.502C17.3945 287.869 17.1055 288.828 16.5273 289.379C15.9492 289.926 15.1621 290.199 14.166 290.199C13.1699 290.199 12.3828 289.926 11.8047 289.379C11.2266 288.828 10.9375 287.869 10.9375 286.502ZM18.8359 285.799C18.8359 284.451 19.1875 283.381 19.8906 282.588C20.5938 281.795 21.5898 281.398 22.8789 281.398C23.6562 281.398 24.2656 281.498 24.707 281.697C25.1523 281.896 25.543 282.205 25.8789 282.623C26.082 282.877 26.0762 283.074 25.8613 283.215L25.1934 283.648C24.998 283.777 24.7891 283.721 24.5664 283.479C24.3828 283.279 24.1504 283.113 23.8691 282.98C23.5879 282.848 23.2773 282.781 22.9375 282.781C22.1172 282.781 21.5332 283.041 21.1855 283.561C20.8379 284.076 20.6641 284.822 20.6641 285.799C20.6641 286.775 20.8379 287.523 21.1855 288.043C21.5332 288.559 22.1172 288.816 22.9375 288.816C23.3359 288.816 23.6797 288.777 23.9688 288.699C24.2578 288.617 24.5312 288.471 24.7891 288.26V287.211H23.5176C23.2246 287.211 23.0781 287.084 23.0781 286.83V286.139C23.0781 285.885 23.2246 285.758 23.5176 285.758H26.0605C26.3535 285.758 26.5 285.885 26.5 286.139V289.115C25.9531 289.518 25.4004 289.799 24.8418 289.959C24.2871 290.119 23.6328 290.199 22.8789 290.199C21.6094 290.199 20.6172 289.803 19.9023 289.01C19.1914 288.217 18.8359 287.146 18.8359 285.799ZM27.8887 289.408C27.7598 289.236 27.7422 289.088 27.8359 288.963L28.2461 288.4C28.4102 288.174 28.6094 288.168 28.8438 288.383C28.9844 288.512 29.2012 288.629 29.4941 288.734C29.7871 288.836 30.0801 288.887 30.373 288.887C30.8184 288.887 31.1934 288.762 31.498 288.512C31.8066 288.262 31.9609 287.896 31.9609 287.416C31.9609 286.959 31.8633 286.59 31.668 286.309C31.4727 286.027 31.2363 285.887 30.959 285.887C30.7207 285.887 30.502 285.906 30.3027 285.945C30.1035 285.98 29.8965 286.092 29.6816 286.279C29.5332 286.408 29.3535 286.473 29.1426 286.473H28.5039C28.25 286.473 28.123 286.346 28.123 286.092V282.049C28.123 281.795 28.25 281.668 28.5039 281.668H32.7227C32.9766 281.668 33.1035 281.795 33.1035 282.049V282.74C33.1035 282.994 32.9766 283.121 32.7227 283.121H29.7637V284.557C29.7637 284.713 29.7559 284.869 29.7402 285.025H29.7754C29.9824 284.846 30.2129 284.727 30.4668 284.668C30.7207 284.605 30.9922 284.574 31.2812 284.574C31.9648 284.574 32.541 284.809 33.0098 285.277C33.4824 285.742 33.7188 286.463 33.7188 287.439C33.7188 288.338 33.418 289.023 32.8164 289.496C32.2188 289.965 31.5078 290.199 30.6836 290.199C29.9961 290.199 29.4004 290.125 28.8965 289.977C28.3965 289.824 28.0605 289.635 27.8887 289.408ZM34.9199 289.408C34.791 289.236 34.7734 289.088 34.8672 288.963L35.2773 288.4C35.4414 288.174 35.6406 288.168 35.875 288.383C36.0156 288.512 36.2324 288.629 36.5254 288.734C36.8184 288.836 37.1113 288.887 37.4043 288.887C37.8496 288.887 38.2246 288.762 38.5293 288.512C38.8379 288.262 38.9922 287.896 38.9922 287.416C38.9922 286.959 38.8945 286.59 38.6992 286.309C38.5039 286.027 38.2676 285.887 37.9902 285.887C37.752 285.887 37.5332 285.906 37.334 285.945C37.1348 285.98 36.9277 286.092 36.7129 286.279C36.5645 286.408 36.3848 286.473 36.1738 286.473H35.5352C35.2812 286.473 35.1543 286.346 35.1543 286.092V282.049C35.1543 281.795 35.2812 281.668 35.5352 281.668H39.7539C40.0078 281.668 40.1348 281.795 40.1348 282.049V282.74C40.1348 282.994 40.0078 283.121 39.7539 283.121H36.7949V284.557C36.7949 284.713 36.7871 284.869 36.7715 285.025H36.8066C37.0137 284.846 37.2441 284.727 37.498 284.668C37.752 284.605 38.0234 284.574 38.3125 284.574C38.9961 284.574 39.5723 284.809 40.041 285.277C40.5137 285.742 40.75 286.463 40.75 287.439C40.75 288.338 40.4492 289.023 39.8477 289.496C39.25 289.965 38.5391 290.199 37.7148 290.199C37.0273 290.199 36.4316 290.125 35.9277 289.977C35.4277 289.824 35.0918 289.635 34.9199 289.408ZM42.2793 283.332C42.1777 283.141 42.2461 282.992 42.4844 282.887C42.7109 282.785 42.9473 282.643 43.1934 282.459C43.4395 282.275 43.6406 282.086 43.7969 281.891C43.9727 281.672 44.1406 281.562 44.3008 281.562H45.2324C45.4668 281.562 45.584 281.68 45.584 281.914V289.648C45.584 289.883 45.4668 290 45.2324 290H44.2949C44.0605 290 43.9434 289.883 43.9434 289.648V284.076C43.9434 283.92 43.9512 283.764 43.9668 283.607H43.9434C43.8223 283.76 43.6895 283.891 43.5449 284C43.4004 284.109 43.2539 284.195 43.1055 284.258C42.9219 284.336 42.7832 284.285 42.6895 284.105L42.2793 283.332Z" fill="#818181"/>
</g>
<defs>
<clipPath id="clip0_2_13">
<rect width="460" height="841" fill="white"/>
</clipPath>
</defs>
</svg>
