<?xml version="1.0" standalone="no"?>
<!DOCTYPE svg PUBLIC "-//W3C//DTD SVG 20010904//EN"
 "http://www.w3.org/TR/2001/REC-SVG-20010904/DTD/svg10.dtd">
<svg version="1.0" xmlns="http://www.w3.org/2000/svg"
 width="225.000000pt" height="224.000000pt" viewBox="0 0 225.000000 224.000000"
 preserveAspectRatio="xMidYMid meet">

<g transform="translate(0.000000,224.000000) scale(0.100000,-0.100000)"
fill="#000000" stroke="none">
<path d="M952 1598 c-65 -36 -94 -58 -98 -75 -4 -15 -32 -39 -80 -69 -70 -43
-78 -53 -75 -80 1 -6 -42 -39 -94 -72 -120 -77 -121 -81 -27 -218 364 -539
390 -570 455 -557 27 5 135 94 275 228 69 64 73 72 69 105 -2 19 -7 42 -11 51
-5 12 17 36 86 95 135 115 148 128 148 161 0 16 -6 35 -12 42 -14 13 -15 12
105 114 45 38 57 54 57 77 0 49 15 43 -493 194 -104 31 -194 56 -200 56 -7 0
-54 -23 -105 -52z m167 -9 c17 -6 31 -14 31 -17 0 -4 -35 -29 -77 -55 l-76
-49 -39 18 c-21 9 -37 21 -36 26 5 15 122 86 144 87 12 1 35 -4 53 -10z m284
-96 c26 -9 49 -19 52 -23 6 -10 -161 -130 -181 -130 -20 0 -125 53 -122 62 2
4 39 32 83 62 56 39 86 54 100 50 11 -3 41 -13 68 -21z m197 -62 c41 -15 75
-33 75 -39 0 -13 -175 -152 -192 -152 -21 0 -163 74 -163 85 1 14 171 135 190
134 8 0 49 -13 90 -28z m-810 -127 c17 -15 30 -30 28 -35 -2 -5 -46 -38 -98
-74 l-95 -64 -32 36 c-18 20 -33 40 -33 44 0 10 171 119 187 119 6 0 25 -12
43 -26z m106 -90 c24 -20 44 -40 44 -45 0 -11 -209 -159 -224 -159 -13 0 -76
84 -76 100 0 10 189 140 203 140 5 0 29 -16 53 -36z m529 -7 c44 -23 80 -48
80 -54 0 -13 -213 -193 -228 -193 -18 0 -156 115 -156 130 0 17 186 159 209
159 8 0 51 -19 95 -42z m-391 -110 c37 -33 57 -58 52 -65 -15 -25 -237 -191
-249 -186 -17 7 -97 119 -97 135 1 14 206 168 225 169 6 0 37 -24 69 -53z
m186 -157 c49 -40 78 -71 77 -82 -2 -18 -263 -248 -282 -248 -13 0 -135 164
-142 190 -3 13 30 45 118 114 67 53 129 95 136 94 8 -2 50 -32 93 -68z"/>
</g>
</svg>
